<svg width="81" height="78" viewBox="0 0 81 78" fill="none" xmlns="http://www.w3.org/2000/svg">
<path d="M15.438 0.203613C7.38624 0.203613 0.902954 6.535 0.902954 14.3981V63.7473C0.902954 71.6105 7.38624 77.9419 15.438 77.9419H42.8266V47.5511H34.5976V36.6094H42.8266V27.2614C42.8266 19.9171 47.6887 13.1738 58.889 13.1738C63.4239 13.1738 66.7772 13.5989 66.7772 13.5989L66.5135 23.8167C66.5135 23.8167 63.0935 23.7851 59.3616 23.7851C55.3226 23.7851 54.675 25.6025 54.675 28.6195V36.6095H66.8344L66.3045 47.5511H54.675V77.9419H65.9712C74.0229 77.9419 80.5062 71.6106 80.5062 63.7474V14.3982C80.5062 6.53508 74.0229 0.203691 65.9712 0.203691H15.438L15.438 0.203613Z" fill="white"/>
</svg>
