<svg width="81" height="77" viewBox="0 0 81 77" fill="none" xmlns="http://www.w3.org/2000/svg">
<path d="M40.6561 0.203613C35.4293 0.203613 30.2537 1.20899 25.4247 3.16235C20.5957 5.1157 16.208 7.97878 12.5121 11.5881C5.04787 18.8775 0.854492 28.764 0.854492 39.0727C0.854492 56.2528 12.2776 70.8287 28.0788 75.9983C30.0689 76.3093 30.7057 75.1043 30.7057 74.0549C30.7057 73.1609 30.7057 70.7121 30.7057 67.486C19.6807 69.8181 17.3324 62.2775 17.3324 62.2775C15.5015 57.7687 12.9144 56.5638 12.9144 56.5638C9.29244 54.1539 13.193 54.2316 13.193 54.2316C17.1732 54.5037 19.2827 58.2352 19.2827 58.2352C22.7454 64.1433 28.5962 62.3942 30.8649 61.4613C31.2231 58.9348 32.258 57.2246 33.3724 56.2528C24.5365 55.2811 15.2627 51.9384 15.2627 37.1292C15.2627 32.8148 16.7751 29.3554 19.3623 26.5957C18.9642 25.624 17.5712 21.5816 19.7603 16.3343C19.7603 16.3343 23.1036 15.2848 30.7057 20.2989C33.8501 19.4438 37.273 19.0163 40.6561 19.0163C44.0393 19.0163 47.4622 19.4438 50.6065 20.2989C58.2087 15.2848 61.552 16.3343 61.552 16.3343C63.7411 21.5816 62.348 25.624 61.95 26.5957C64.5371 29.3554 66.0496 32.8148 66.0496 37.1292C66.0496 51.9772 56.736 55.2422 47.8602 56.214C49.2931 57.4189 50.6065 59.7899 50.6065 63.4048V74.0549C50.6065 75.1043 51.2434 76.3482 53.2733 75.9983C69.0745 70.7899 80.4578 56.2528 80.4578 39.0727C80.4578 33.9683 79.4283 28.914 77.4281 24.1981C75.4278 19.4823 72.4961 15.1974 68.8001 11.5881C65.1042 7.97878 60.7165 5.1157 55.8876 3.16235C51.0586 1.20899 45.883 0.203613 40.6561 0.203613Z" fill="white"/>
</svg>
