<svg width="81" height="78" viewBox="0 0 81 78" fill="none" xmlns="http://www.w3.org/2000/svg">
<path fill-rule="evenodd" clip-rule="evenodd" d="M24.3438 0.436828C28.5893 0.246793 29.9426 0.203613 40.7531 0.203613C51.5658 0.203613 52.9169 0.248949 57.1601 0.436828C61.399 0.624707 64.2936 1.28333 66.8254 2.24424C69.4809 3.2206 71.8863 4.75038 73.8746 6.72715C75.8991 8.66859 77.4658 11.0179 78.4652 13.6113C79.449 16.0838 80.1213 18.9105 80.316 23.0478C80.5106 27.1939 80.5548 28.5154 80.5548 39.0727C80.5548 49.6299 80.5084 50.9515 80.316 55.0977C80.1235 59.2348 79.449 62.0616 78.4652 64.5341C77.4481 67.0888 76.0858 69.2588 73.8746 71.4181C71.8867 73.3952 69.4809 74.9252 66.8254 75.9012C64.2936 76.8619 61.399 77.5185 57.1626 77.7086C52.9169 77.8987 51.5636 77.9418 40.7531 77.9418C29.9426 77.9418 28.5893 77.8966 24.3438 77.7086C20.1071 77.5206 17.2127 76.8619 14.6808 75.9012C12.065 74.9079 9.84273 73.5775 7.63153 71.4181C5.60697 69.4768 4.04037 67.1273 3.04106 64.5341C2.05709 62.0616 1.38488 59.2348 1.19029 55.0977C0.995693 50.9515 0.951477 49.632 0.951477 39.0727C0.951477 28.5133 0.9979 27.1939 1.19029 23.05C1.38267 18.9105 2.05709 16.0838 3.04106 13.6113C4.04084 11.0181 5.60733 8.66888 7.63153 6.72715C9.61951 4.75002 12.0252 3.22014 14.6808 2.24424C17.2127 1.28333 20.1071 0.626862 24.3438 0.436828ZM56.8373 7.43326C52.6404 7.24754 51.3802 7.20651 40.7531 7.20651C30.1261 7.20651 28.8657 7.24754 24.6688 7.43326C20.7882 7.60602 18.6809 8.2387 17.279 8.77209C15.4216 9.47605 14.0948 10.3182 12.7018 11.6786C11.311 13.039 10.4464 14.3347 9.72553 16.1486C9.17935 17.5176 8.53148 19.5755 8.35458 23.3653C8.1644 27.4638 8.12239 28.6947 8.12239 39.0727C8.12239 49.4507 8.1644 50.6815 8.35458 54.7801C8.53148 58.5698 9.17935 60.6277 9.72553 61.997C10.3632 63.6853 11.3802 65.2125 12.7018 66.4669C13.9859 67.7574 15.55 68.7507 17.279 69.3733C18.6809 69.9068 20.7882 70.5393 24.6688 70.7121C28.8657 70.898 30.1239 70.939 40.7531 70.939C51.3823 70.939 52.6404 70.898 56.8373 70.7121C60.718 70.5393 62.8253 69.9068 64.2274 69.3733C66.0847 68.6694 67.4115 67.8273 68.8046 66.4669C70.126 65.2129 71.1431 63.6853 71.7807 61.997C72.327 60.6277 72.9747 58.5698 73.1517 54.7801C73.342 50.6815 73.384 49.4507 73.384 39.0727C73.384 28.6947 73.342 27.4638 73.1517 23.3653C72.9747 19.5755 72.327 17.5176 71.7807 16.1486C71.0599 14.3347 70.1977 13.039 68.8046 11.6786C67.4115 10.3204 66.0847 9.47605 64.2274 8.77209C62.8253 8.2387 60.718 7.60602 56.8373 7.43326ZM35.6712 51.0546C37.2824 51.7066 39.0091 52.0419 40.7531 52.0419C44.2756 52.0419 47.6533 50.6755 50.1438 48.2433C52.6346 45.8112 54.0338 42.5123 54.0338 39.0727C54.0338 35.6331 52.6346 32.3342 50.1438 29.902C47.6533 27.4698 44.2756 26.1034 40.7531 26.1034C39.0091 26.1034 37.2824 26.4388 35.6712 27.0906C34.0596 27.7424 32.5957 28.6977 31.3625 29.902C30.1293 31.1063 29.1511 32.536 28.4837 34.1095C27.8162 35.683 27.4728 37.3695 27.4728 39.0727C27.4728 40.7759 27.8162 42.4624 28.4837 44.0359C29.1511 45.6094 30.1293 47.0391 31.3625 48.2433C32.5957 49.4476 34.0596 50.403 35.6712 51.0546ZM26.2872 24.9456C30.1238 21.1989 35.3274 19.094 40.7531 19.094C46.1792 19.094 51.3827 21.1989 55.2192 24.9456C59.0557 28.6923 61.2112 33.7741 61.2112 39.0727C61.2112 44.3713 59.0557 49.4529 55.2192 53.1998C51.3827 56.9465 46.1792 59.0514 40.7531 59.0514C35.3274 59.0514 30.1238 56.9465 26.2872 53.1998C22.4506 49.4529 20.2952 44.3713 20.2952 39.0727C20.2952 33.7741 22.4506 28.6923 26.2872 24.9456ZM65.7475 22.0706C66.6542 21.1849 67.1637 19.9837 67.1637 18.7312C67.1637 17.4787 66.6542 16.2775 65.7475 15.3918C64.8404 14.5062 63.6105 14.0086 62.3278 14.0086C61.0454 14.0086 59.8152 14.5062 58.9085 15.3918C58.0013 16.2775 57.4919 17.4787 57.4919 18.7312C57.4919 19.9837 58.0013 21.1849 58.9085 22.0706C59.8152 22.9562 61.0454 23.4538 62.3278 23.4538C63.6105 23.4538 64.8404 22.9562 65.7475 22.0706Z" fill="white"/>
</svg>
