<svg width="70" height="81" viewBox="0 0 70 81" fill="none" xmlns="http://www.w3.org/2000/svg">
<path d="M49.4745 60.3044L40.2196 69.0357C38.6132 70.607 36.3992 71.2606 33.9587 71.2606C31.5182 71.2606 29.3068 70.607 27.6978 69.0357L12.8282 54.424C11.2321 52.8527 10.4161 50.5599 10.4161 48.1766C10.4161 45.7832 11.2321 43.6211 12.8282 42.0624L27.6567 27.3702C29.2528 25.814 31.5182 25.2106 33.9587 25.2106C36.3992 25.2106 38.6132 25.8643 40.2196 27.4356L49.4745 36.1669C51.2431 37.8966 54.1676 37.8337 56.0031 36.0362C57.8258 34.2436 57.8953 31.3902 56.1241 29.6605L47.1833 20.8336C44.8638 18.5936 41.9522 17.05 38.7883 16.341L47.2502 7.96167C49.0214 6.23451 48.9674 3.37854 47.1292 1.58601C45.2911 -0.206511 42.3692 -0.26182 40.6006 1.45528L5.92634 35.3171C2.56163 38.6156 0.805908 43.1434 0.805908 48.1715C0.805908 53.1896 2.56421 57.8758 5.92634 61.1642L20.85 75.7759C24.2147 79.0618 28.8692 80.6456 34.0179 80.6456C39.1538 80.6456 43.8032 78.9285 47.1704 75.6452L56.1267 66.7932C57.8979 65.0761 57.8284 62.2251 55.9928 60.4301C54.1573 58.635 51.2328 58.5697 49.4771 60.2993L49.4745 60.3044ZM65.6416 43.8172H30.8077C28.4084 43.8172 26.4518 45.8309 26.4518 48.3199C26.4518 50.8113 28.4084 52.8376 30.8077 52.8376H65.6416C68.0435 52.8376 70 50.8088 70 48.3199C70 45.8334 68.0435 43.8172 65.6416 43.8172Z" fill="white"/>
</svg>
